<?xml version="1.0" encoding="UTF-8" standalone="no"?>
<!-- Created with Inkscape (http://www.inkscape.org/) -->

<svg
   xmlns:dc="http://purl.org/dc/elements/1.1/"
   xmlns:cc="http://creativecommons.org/ns#"
   xmlns:rdf="http://www.w3.org/1999/02/22-rdf-syntax-ns#"
   xmlns:svg="http://www.w3.org/2000/svg"
   xmlns="http://www.w3.org/2000/svg"
   xmlns:sodipodi="http://sodipodi.sourceforge.net/DTD/sodipodi-0.dtd"
   xmlns:inkscape="http://www.inkscape.org/namespaces/inkscape"
   width="155.31041mm"
   height="117.73959mm"
   viewBox="0 0 155.31041 117.73959"
   version="1.1"
   id="svg8"
   inkscape:version="0.92.1 r15371"
   sodipodi:docname="AGEsvg.svg">
  <defs
     id="defs2" />
  <sodipodi:namedview
     id="base"
     pagecolor="#ffffff"
     bordercolor="#666666"
     borderopacity="1.0"
     inkscape:pageopacity="0.0"
     inkscape:pageshadow="2"
     inkscape:zoom="0.35"
     inkscape:cx="304.78571"
     inkscape:cy="-31.928679"
     inkscape:document-units="mm"
     inkscape:current-layer="layer1"
     showgrid="false"
     inkscape:window-width="1366"
     inkscape:window-height="705"
     inkscape:window-x="-8"
     inkscape:window-y="-8"
     inkscape:window-maximized="1" />
  <metadata
     id="metadata5">
    <rdf:RDF>
      <cc:Work
         rdf:about="">
        <dc:format>image/svg+xml</dc:format>
        <dc:type
           rdf:resource="http://purl.org/dc/dcmitype/StillImage" />
        <dc:title />
      </cc:Work>
    </rdf:RDF>
  </metadata>
  <g
     inkscape:label="Capa 1"
     inkscape:groupmode="layer"
     id="layer1"
     transform="translate(-25.192114,-22.645946)">
    <g
       id="g3691"
       transform="translate(-0.71816074,-26.496163)">
      <path
         style="fill:#fdfdfd;stroke-width:0.26458335"
         d="M 25.910275,108.0119 V 49.142109 h 77.655205 77.6552 v 58.869791 58.8698 h -77.6552 -77.655205 z"
         id="path3707"
         inkscape:connector-curvature="0" />
      <path
         style="fill:#cfcfcf;stroke-width:0.26458335"
         d="m 37.41965,163.73645 c -2.11509,-0.16192 -2.116629,-0.16259 -2.065813,-0.89727 0.05844,-0.84488 0.44785,-1.66371 19.59414,-41.20123 7.857334,-16.22558 17.992275,-37.15493 22.522094,-46.509674 4.52982,-9.354746 8.236035,-17.095936 8.236035,-17.202645 0,-0.106709 0.301948,-0.638374 0.670996,-1.181478 l 0.670997,-0.98746 h 4.182636 c 2.300449,0 5.451996,0.07767 7.003433,0.172592 l 2.820802,0.172592 -0.14141,27.939389 c -0.14569,28.786904 -0.28095,36.009184 -0.6744,36.009184 -0.335738,0 -2.454281,-1.90258 -7.720034,-6.93304 l -4.696354,-4.4865 -0.02637,-12.744922 c -0.0145,-7.009704 -0.116861,-13.042575 -0.227457,-13.406377 l -0.201081,-0.661458 -0.276281,0.661458 c -0.151952,0.363802 -0.539461,1.256771 -0.861126,1.984375 -0.321667,0.727604 -1.510384,3.525573 -2.641592,6.217709 -6.950363,16.540995 -9.306451,22.115435 -10.320628,24.418315 -0.892609,2.02685 -1.071057,2.65984 -0.820478,2.91042 0.235045,0.23504 2.25471,0.32022 7.592687,0.32022 8.218254,0 7.771487,0.12348 7.778279,-2.14974 0.0051,-1.70513 0.259185,-3.00963 0.586221,-3.00963 0.215662,0 9.086995,8.16114 13.020744,11.97837 l 1.3013,1.26275 -0.77138,0.8184 c -1.05646,1.12086 -8.352803,6.96298 -11.250506,9.00817 -1.302023,0.91897 -2.572488,1.67085 -2.823258,1.67085 -0.38382,0 -0.476872,-0.34397 -0.588237,-2.17445 -0.204539,-3.36197 0.692306,-3.10296 -11.072609,-3.19774 l -9.996016,-0.0805 -0.345826,0.74198 c -2.104117,4.51448 -12.617928,28.35527 -12.844412,29.12559 -0.09741,0.3313 -0.490056,0.80755 -0.872555,1.05834 -0.602499,0.39503 -1.492754,0.45995 -6.660662,0.48572 -3.280866,0.0164 -6.91771,-0.0432 -8.081876,-0.13229 z m 33.734373,-1.08964 c -3.928657,-0.6233 -12.675891,-3.89158 -13.054234,-4.87753 -0.190172,-0.49558 0.550963,-2.67953 1.644359,-4.84554 0.589629,-1.16804 0.983869,-1.65246 1.344858,-1.65246 0.280887,0 1.440032,0.42389 2.57588,0.94198 1.135849,0.51809 3.493929,1.37559 5.240179,1.90555 3.150499,0.95613 3.218495,0.96435 8.81182,1.06532 6.779321,0.12237 9.232217,-0.15968 13.148596,-1.51192 4.127827,-1.42524 7.344489,-3.12164 11.108519,-5.85839 l 3.26794,-2.37605 4.58234,0.0725 c 4.06276,0.0643 4.59211,0.12335 4.66848,0.52102 0.10491,0.5462 -3.12979,3.98904 -6.1397,6.53478 -5.28868,4.47309 -11.093101,7.41761 -18.678204,9.47527 -2.370312,0.64301 -2.928155,0.68627 -9.789583,0.75912 -4.001823,0.0425 -7.930885,-0.0266 -8.73125,-0.15363 z m 50.647247,-20.04063 c 0.50522,-2.76847 0.50351,-2.91356 -0.0364,-3.08492 -0.28379,-0.0901 -2.5374,-0.27373 -5.00802,-0.40813 -6.00117,-0.32647 -6.73468,-0.52966 -8.58591,-2.37836 -2.81754,-2.8137 -2.79507,-4.87315 0.16322,-14.96453 2.34395,-7.99571 6.56645,-22.39713 8.45577,-28.839587 1.06689,-3.638021 2.13999,-7.323873 2.38466,-8.190783 0.9257,-3.279947 2.52772,-5.582243 4.43644,-6.375723 1.26121,-0.524299 8.09968,-0.853292 18.51747,-0.890866 l 5.75469,-0.02075 v 1.021871 c 0,0.562028 -0.34554,2.139607 -0.76787,3.50573 -0.42233,1.36612 -1.02022,3.344249 -1.32864,4.395838 -0.38927,1.327256 -0.7364,2.005981 -1.13508,2.219349 -0.36562,0.195672 -2.79123,0.354539 -6.67501,0.437179 -4.37941,0.09319 -6.2994,0.230693 -6.80498,0.487365 -0.80375,0.408054 -1.02703,1.008528 -3.13762,8.437878 -0.74413,2.619369 -1.75631,6.072179 -2.24929,7.672909 -0.49298,1.60073 -1.67171,5.58933 -2.61939,8.86355 -0.94768,3.27421 -2.19432,7.50093 -2.7703,9.3927 -0.98647,3.24002 -1.02152,3.46857 -0.60401,3.93913 1.11907,1.26123 4.59401,1.69968 5.58856,0.70512 0.28332,-0.28331 0.87097,-1.6823 1.3059,-3.10885 3.28297,-10.7681 3.47899,-11.79416 2.3092,-12.08776 -0.34775,-0.0873 -0.70141,-0.33886 -0.78591,-0.55906 -0.17707,-0.46143 0.8158,-4.44171 1.99675,-8.00472 l 0.81118,-2.4474 h 6.82411 c 3.75327,0 7.01245,0.0723 7.24263,0.1606 0.23019,0.0883 0.41852,0.35622 0.41852,0.59531 0,0.23909 -0.88727,3.41128 -1.97172,7.0493 -1.73567,5.82271 -5.50377,18.67593 -7.07389,24.12949 -0.30157,1.04746 -0.8007,2.14115 -1.10917,2.43041 -0.99351,0.93165 -12.75406,6.90989 -13.59331,6.90989 -0.0735,0 -0.0522,-0.44648 0.0474,-0.99218 z m -33.180102,0.21742 c -0.328988,-0.21684 -0.264998,-0.39336 0.396875,-1.09485 1.312289,-1.39081 10.932099,-9.77205 11.216157,-9.77205 0.14552,0 0.34186,0.41184 0.43629,0.91522 0.2357,1.2564 0.0369,9.57191 -0.23538,9.84465 -0.32009,0.32064 -11.338395,0.42047 -11.813942,0.10703 z m -48.219743,-0.87761 c -1.032713,-1.10507 -4.446244,-8.13688 -5.340896,-11.00214 -2.462863,-7.88772 -2.873133,-16.36256 -1.195813,-24.70159 1.738743,-8.644402 6.747305,-17.392136 13.908408,-24.291816 4.413045,-4.251942 9.133106,-7.206148 15.349213,-9.606811 4.10713,-1.586175 10.581158,-2.994373 12.798401,-2.783843 0.804351,0.07637 0.913736,0.171823 0.858342,0.748987 -0.100213,1.044192 -2.934932,6.573364 -3.590165,7.002688 -0.325342,0.213172 -1.449126,0.567989 -2.497299,0.788477 -3.999814,0.841388 -8.941543,2.968053 -12.91441,5.5577 -4.249189,2.769761 -9.077653,7.989864 -12.117759,13.100635 -4.179688,7.026543 -5.973017,15.992583 -4.924735,24.622023 0.366723,3.01885 1.927267,8.58616 3.146436,11.22505 1.555681,3.36727 1.562748,3.15586 -0.224706,6.72161 -0.867072,1.7297 -1.773087,3.22035 -2.013366,3.31255 -0.290745,0.11157 -0.706055,-0.1204 -1.241651,-0.69352 z m 99.903205,-3.13424 c -0.45743,-0.13254 -0.89689,-0.4109 -0.97659,-0.61858 -0.0797,-0.20768 0.91081,-3.92827 2.20111,-8.26797 2.9167,-9.80978 6.43275,-21.75005 9.25762,-31.438297 1.18806,-4.074583 2.62075,-8.956146 3.18375,-10.847917 0.56301,-1.891771 1.28149,-4.327298 1.59662,-5.412282 0.31514,-1.084985 0.85174,-2.603032 1.19245,-3.373438 l 0.61948,-1.400739 h 11.65622 11.65623 v 1.175258 c 0,0.646391 -0.39852,2.521625 -0.8856,4.167188 -0.48708,1.64556 -1.02778,3.498427 -1.20157,4.117478 -0.52318,1.863693 -0.94172,1.99984 -6.66443,2.167824 -3.20757,0.09416 -5.08881,0.254246 -5.28403,0.449657 -0.30752,0.307832 -3.33667,10.520468 -3.48072,11.735098 -0.0722,0.60874 0.027,0.67542 1.24447,0.83671 0.72761,0.0964 2.88592,0.18569 4.79625,0.19844 4.41218,0.0294 4.40732,0.0254 3.60439,3.02873 -1.28937,4.82293 -1.83598,6.6792 -2.12229,7.20722 -0.36045,0.66474 -2.38851,0.89973 -7.76506,0.89973 h -3.39125 l -1.32064,4.16719 c -0.72635,2.29195 -1.45829,4.7625 -1.62652,5.4901 -0.16823,0.72761 -0.4707,1.71391 -0.67215,2.19179 -0.33076,0.78465 -0.473,1.58239 -0.30012,1.68327 0.0364,0.0212 2.35397,0.11053 5.1502,0.19844 6.32514,0.19886 6.2302,0.14516 5.23933,2.96338 -0.37882,1.07743 -1.05895,3.06955 -1.51141,4.42694 -1.00125,3.00376 -1.68948,4.08843 -2.73651,4.31286 -1.22905,0.26345 -20.52982,0.21121 -21.45923,-0.0581 z m 27.17861,-0.65939 c 0.0127,-0.30823 0.0754,-0.37092 0.15985,-0.15986 0.0764,0.191 0.067,0.41921 -0.0209,0.50712 -0.0879,0.0879 -0.15046,-0.0683 -0.13897,-0.34726 z"
         id="path3705"
         inkscape:connector-curvature="0" />
      <path
         style="fill:#afafaf;stroke-width:0.26458335"
         d="m 37.948816,163.73954 c -2.627683,-0.164 -2.645328,-0.16967 -2.572209,-0.82659 0.110284,-0.99082 1.004462,-2.87403 18.907105,-39.8198 C 63.380065,104.32097 73.92611,82.532528 77.71937,74.674402 81.512627,66.816277 85.133492,59.37487 85.765735,58.137943 l 1.149532,-2.248959 7.00219,0.09181 c 3.851203,0.05049 7.011303,0.110024 7.022453,0.132292 0.12694,0.25366 -0.34642,63.690264 -0.47622,63.820054 -0.27115,0.27116 -1.205608,-0.53292 -7.150814,-6.15311 l -5.490104,-5.18995 -0.0041,-12.989088 c -0.0024,-7.364725 -0.10858,-13.15429 -0.245452,-13.370619 -0.278627,-0.44037 -0.499515,0.02024 -3.862509,8.054452 -1.218253,2.910416 -4.132035,9.816035 -6.475071,15.345825 -5.164661,12.18911 -5.18184,12.23271 -4.922985,12.4921 0.317521,0.31818 14.352232,0.41207 14.935493,0.0999 0.396729,-0.21232 0.527396,-0.69416 0.662159,-2.44173 0.09234,-1.19747 0.282242,-2.29156 0.422003,-2.43132 0.162425,-0.16243 1.906299,1.32077 4.833199,4.11071 2.518497,2.40066 5.531588,5.22257 6.695754,6.27092 2.390167,2.15238 2.762177,2.71228 2.228957,3.35476 -0.1979,0.23846 -1.85194,1.64748 -3.67564,3.13116 -6.232628,5.07056 -10.356789,8.00147 -10.839402,7.70319 -0.160507,-0.0992 -0.281622,-1.06952 -0.281622,-2.2562 0,-2.42236 -0.240059,-2.80243 -1.921391,-3.042 -0.616725,-0.0879 -5.203886,-0.12472 -10.193692,-0.0819 l -9.072374,0.0779 -1.145974,2.51354 c -4.043965,8.8699 -12.062401,27.1207 -12.062401,27.45527 0,0.17258 -0.301908,0.5116 -0.670905,0.75337 -0.561949,0.36821 -1.560966,0.44973 -6.151562,0.50197 -3.014362,0.0343 -6.671283,-0.0119 -8.126491,-0.10277 z m 33.602082,-1.08887 c -3.507007,-0.5035 -11.585029,-3.30872 -12.892825,-4.47723 l -0.793234,-0.70876 0.724217,-1.83993 c 1.024541,-2.60292 2.003827,-4.35347 2.435405,-4.35347 0.203319,0 1.583381,0.52466 3.066804,1.16591 1.483423,0.64125 4.090135,1.53422 5.792697,1.98438 3.009284,0.79565 3.256328,0.81841 8.863542,0.81646 6.579927,-0.002 8.099342,-0.19118 11.980295,-1.48943 4.191249,-1.40205 7.169669,-2.94816 11.103511,-5.76387 l 3.55749,-2.54633 4.50891,0.0722 c 4.08774,0.0654 4.5174,0.11636 4.59979,0.54528 0.10499,0.54658 -3.92863,4.65131 -7.1414,7.26731 -5.07317,4.13082 -11.972293,7.40911 -18.81564,8.94072 -2.209752,0.49457 -14.318694,0.77024 -16.989562,0.38679 z m 50.238672,-19.8835 c 0.50489,-2.66069 0.5044,-3.05183 -0.004,-3.25324 -0.27112,-0.1074 -2.40977,-0.29514 -4.75256,-0.4172 -5.16302,-0.269 -6.01373,-0.40746 -7.41191,-1.20636 -2.3781,-1.35882 -3.40466,-3.27759 -3.38687,-6.33055 0.0152,-2.60606 0.10531,-2.95215 5.68391,-21.82812 1.18269,-4.00183 2.7886,-9.4787 3.56868,-12.170838 0.78007,-2.692136 2.02223,-6.978386 2.76036,-9.525001 1.95093,-6.730987 2.86692,-8.40367 5.2266,-9.54431 1.23075,-0.594926 1.50837,-0.612626 12.62491,-0.804944 6.25157,-0.108154 11.46056,-0.138507 11.57552,-0.06745 0.41503,0.256498 0.18985,1.613567 -0.87189,5.254644 -0.59451,2.038771 -1.20809,4.0435 -1.36351,4.454954 -0.53739,1.422688 -0.93221,1.508879 -7.83862,1.711145 -5.89043,0.172513 -6.40924,0.226507 -6.87785,0.715756 -0.28133,0.293725 -1.00141,2.236129 -1.61841,4.365625 -2.008,6.930309 -5.82162,19.861389 -7.72504,26.193749 -1.02792,3.41974 -1.92274,6.45699 -1.98849,6.74944 -0.1946,0.86567 1.32951,1.80303 3.14519,1.93437 3.04832,0.22049 3.29446,-0.082 4.95142,-6.08576 0.5768,-2.08997 1.18371,-4.1546 1.34867,-4.58806 0.52031,-1.36722 1.06306,-4.03348 0.90494,-4.44553 -0.0836,-0.21773 -0.45696,-0.47244 -0.8298,-0.56601 -0.6445,-0.16176 -0.67065,-0.23788 -0.53089,-1.54523 0.14291,-1.33691 1.69024,-6.77075 2.43686,-8.55767 l 0.37072,-0.88722 6.56193,0.004 c 6.90471,0.004 7.75257,0.0817 7.75257,0.71254 0,0.21442 -0.88062,3.32592 -1.95693,6.91445 -2.31967,7.73406 -5.96985,20.21152 -6.78503,23.19336 -0.71088,2.60033 -1.0923,3.36692 -1.95716,3.9336 -1.02249,0.66996 -11.83459,6.17056 -12.55231,6.38593 -0.59511,0.17857 -0.62033,0.14028 -0.46094,-0.69969 z m -32.857566,0.13342 c -0.33581,-0.0752 -0.565198,-0.27642 -0.509752,-0.4471 0.05544,-0.17069 1.758947,-1.78563 3.78556,-3.58878 2.026613,-1.80315 4.59858,-4.0951 5.715482,-5.09323 1.116904,-0.99813 2.151406,-1.81478 2.298896,-1.81478 0.47836,0 0.64454,2.3947 0.45735,6.59073 -0.10078,2.25899 -0.21892,4.14294 -0.26253,4.18656 -0.14845,0.14845 -10.871663,0.30401 -11.485006,0.1666 z M 40.482228,141.9514 c -0.892293,-0.90998 -3.754255,-6.48945 -4.927243,-9.60579 -1.019919,-2.70968 -2.211967,-8.28325 -2.558896,-11.96446 -0.359955,-3.81941 0.0067,-9.72498 0.862649,-13.89359 2.706877,-13.183241 12.275786,-25.830788 24.033358,-31.765694 1.545987,-0.780373 3.168073,-1.547743 3.604636,-1.705268 0.436562,-0.157524 1.584439,-0.591691 2.550837,-0.964815 3.966781,-1.531565 11.690934,-2.952635 12.618471,-2.321514 0.283146,0.192661 0.189338,0.625256 -0.476017,2.195165 -1.115021,2.630892 -2.817194,5.461627 -3.383862,5.627405 -0.253831,0.07426 -1.47987,0.371922 -2.724529,0.661477 -6.43864,1.497869 -13.30843,5.347674 -17.985325,10.078905 -6.137722,6.209031 -9.993431,13.766789 -11.274619,22.099929 -0.469913,3.05642 -0.373683,10.68294 0.165254,13.09688 0.753528,3.37511 1.904093,7.0469 2.904043,9.26765 0.588109,1.30611 1.069289,2.73393 1.069289,3.17294 0,0.91233 -2.323346,5.71074 -3.107373,6.41766 -0.50363,0.4541 -0.549166,0.44091 -1.370673,-0.39688 z m 100.389502,-3.0463 c -0.99935,-0.14612 -1.45521,-0.51755 -1.45521,-1.1857 0,-0.28737 0.94247,-3.69584 2.09438,-7.57437 3.46673,-11.67265 6.72289,-22.71872 9.29316,-31.525835 4.08704,-14.004349 5.48212,-18.59859 6.04663,-19.912683 l 0.54108,-1.25956 11.58373,0.06894 11.58373,0.06893 -0.0105,1.322917 c -0.006,0.727604 -0.38773,2.573073 -0.84879,4.101042 -0.46106,1.527968 -0.99212,3.313006 -1.18013,3.966752 -0.50158,1.74411 -0.99795,1.898539 -6.62044,2.059742 -3.83263,0.109887 -4.83081,0.216969 -5.22385,0.560403 -0.65296,0.570561 -3.82805,11.922802 -3.4425,12.308352 0.15426,0.15426 2.17723,0.31572 4.69753,0.37492 4.44417,0.1044 5.35264,0.26919 5.35264,0.97094 0,0.42811 -2.01257,7.82122 -2.42556,8.91019 -0.1478,0.38972 -0.45746,0.78102 -0.68814,0.86954 -0.23068,0.0885 -2.7094,0.23461 -5.50826,0.32465 -4.83149,0.15542 -5.10123,0.19173 -5.33365,0.71796 -0.13464,0.30484 -0.86747,2.63785 -1.62852,5.18447 -0.76105,2.54661 -1.57692,5.2642 -1.81305,6.03908 -0.37125,1.21829 -0.37786,1.44143 -0.0489,1.64959 0.20924,0.1324 2.16637,0.24941 4.34918,0.26002 5.14632,0.025 6.06316,0.18147 6.15505,1.05027 0.0842,0.7964 -2.92498,9.4479 -3.47887,10.0018 -0.21584,0.21584 -0.96581,0.48671 -1.6666,0.60194 -1.30698,0.2149 -18.89648,0.25445 -20.32416,0.0457 z"
         id="path3703"
         inkscape:connector-curvature="0" />
      <path
         style="fill:#8f8f8f;stroke-width:0.26458335"
         d="m 35.488509,163.48061 c -0.426741,-0.27069 0.03369,-1.49941 2.42249,-6.46479 1.746706,-3.63072 23.529408,-48.62148 38.137016,-78.769543 4.618345,-9.531615 8.84509,-18.282709 9.392772,-19.446876 1.593773,-3.387763 0.680201,-3.08122 8.562152,-2.872978 l 6.840681,0.180731 -0.0943,31.81732 c -0.0519,17.499526 -0.17854,31.901586 -0.28154,32.004566 -0.26357,0.26356 -1.213578,-0.55853 -7.25532,-6.27839 l -5.325917,-5.04216 -0.0067,-13.042976 c -0.0039,-7.531862 -0.110665,-13.228686 -0.252707,-13.482498 -0.312684,-0.558736 0.150157,-1.604055 -9.840565,22.224724 -2.074431,4.94771 -4.177258,9.8758 -4.672946,10.95132 -1.058231,2.29609 -1.111176,2.83319 -0.305941,3.10343 0.998789,0.3352 14.181042,0.19871 14.602655,-0.1512 0.227484,-0.1888 0.438193,-1.15683 0.553744,-2.54402 0.102592,-1.2316 0.301429,-2.31027 0.441862,-2.39707 0.140433,-0.0868 1.584717,1.13873 3.209523,2.72337 1.624809,1.58465 4.710366,4.52967 6.856798,6.5445 2.146434,2.01483 3.902604,3.81429 3.902604,3.99881 0,0.8056 -13.365947,11.25371 -14.506423,11.33961 -0.373123,0.0281 -0.463283,-0.3279 -0.574826,-2.26971 -0.07877,-1.37135 -0.271346,-2.44172 -0.476017,-2.64584 -0.269534,-0.2688 -2.548062,-0.34278 -10.557412,-0.34278 h -10.21372 l -1.422723,3.175 c -6.382667,14.24377 -10.480579,23.52507 -11.214689,25.4 -0.47281,1.20756 -0.941157,1.96582 -1.345831,2.17891 -0.719109,0.37867 -15.991208,0.47868 -16.57472,0.10854 z m 36.158811,-0.8612 c -3.179384,-0.41034 -10.907543,-2.99919 -12.730276,-4.26449 -0.473511,-0.3287 -0.727604,-0.7422 -0.727604,-1.18406 0,-0.86246 2.226268,-5.59213 2.721721,-5.78225 0.204531,-0.0785 1.431989,0.32173 2.727682,0.88937 2.390918,1.04746 3.33991,1.37337 7.10865,2.44131 1.895534,0.53713 2.69222,0.59746 7.9375,0.60107 4.346757,0.003 6.405369,-0.10721 8.08955,-0.43306 4.947317,-0.95719 10.586561,-3.541 15.318687,-7.01876 l 3.29025,-2.41809 4.25038,0.004 c 2.3377,0.002 4.42157,0.11238 4.63081,0.24477 0.31495,0.19929 0.24663,0.43417 -0.39688,1.3645 -0.81933,1.18452 -5.19821,5.26134 -7.74046,7.20652 -5.48884,4.19973 -14.113682,7.70814 -20.533323,8.35254 -3.317171,0.33297 -11.355585,0.331 -13.946687,-0.003 z m 50.04526,-19.48407 c 0.002,-0.10914 0.17712,-0.85223 0.38976,-1.65131 0.32259,-1.21228 0.32807,-1.51142 0.0331,-1.8064 -0.24547,-0.24548 -1.71922,-0.42688 -4.82153,-0.59347 -5.77933,-0.31035 -6.91695,-0.55483 -8.53559,-1.83429 -1.82429,-1.44202 -2.51668,-2.98239 -2.49133,-5.54246 0.0225,-2.26715 0.3957,-4.02109 2.05842,-9.67259 5.25741,-17.86967 10.27343,-34.990292 10.8492,-37.030367 0.97852,-3.467108 2.36888,-5.53565 4.34298,-6.4614 l 1.47916,-0.693651 11.44323,-0.08592 11.44323,-0.08592 v 0.625647 c 0,0.69717 -0.35861,2.079512 -1.70039,6.554667 -0.60928,2.032095 -1.10217,3.194193 -1.4869,3.505729 -0.49157,0.398047 -1.17899,0.469373 -4.71338,0.489051 -6.2569,0.03484 -8.64893,0.267954 -9.27661,0.904052 -0.33114,0.335581 -1.19302,2.843162 -2.36409,6.878119 -2.80945,9.680133 -5.71384,19.541903 -7.45918,25.327423 -0.86595,2.8705 -1.57445,5.33676 -1.57445,5.48057 0,0.14381 0.44435,0.56342 0.98746,0.93247 0.82255,0.55894 1.29407,0.671 2.82343,0.671 2.75667,0 2.39887,0.6288 5.41988,-9.525 0.58449,-1.96453 1.14154,-4.0678 1.23787,-4.67393 0.16509,-1.03877 0.12784,-1.12652 -0.64883,-1.52815 -0.62112,-0.32119 -0.82398,-0.60636 -0.82398,-1.15834 0,-0.76231 0.87114,-4.00911 2.01465,-7.50876 l 0.66556,-2.03689 1.10729,-0.16337 c 1.94437,-0.28688 12.82237,-0.0298 13.16264,0.31111 0.23267,0.23309 -0.17623,1.92632 -1.69317,7.01146 -1.09996,3.68729 -3.02318,10.21651 -4.27382,14.50937 -3.80545,13.06231 -3.45814,12.09188 -4.57636,12.78672 -0.54056,0.33589 -3.45293,1.88254 -6.47194,3.43699 -4.98122,2.56478 -6.55529,3.19666 -6.54629,2.62785 z m -32.348454,-0.25118 c -0.545703,-0.0613 -0.992187,-0.21368 -0.992187,-0.33858 0,-0.12489 1.451414,-1.51669 3.225363,-3.09288 1.773949,-1.57619 4.408636,-3.91609 5.854859,-5.19979 1.946701,-1.72793 2.706539,-2.25662 2.926199,-2.03602 0.20319,0.20406 0.27632,1.89118 0.23203,5.35318 -0.0356,2.78036 -0.0951,5.07995 -0.13229,5.11018 -0.15123,0.12297 -10.194549,0.30723 -11.113974,0.20391 z m -49.132125,-1.33632 c -1.013831,-1.22964 -3.685312,-6.672 -4.727865,-9.63163 -4.103186,-11.64824 -3.276687,-25.30455 2.189703,-36.180621 5.001136,-9.95039 12.882258,-17.790696 21.908929,-21.795462 4.310062,-1.912198 5.271791,-2.262464 8.491428,-3.092613 4.646195,-1.197971 8.90066,-1.592646 8.90066,-0.825692 0,0.101666 -0.77815,1.760195 -1.729226,3.68562 -1.907117,3.860909 -1.789478,3.755306 -4.91584,4.412957 -2.372246,0.499018 -4.627268,1.294919 -7.642433,2.697374 -11.135516,5.179497 -19.708255,16.540905 -21.802248,28.894397 -0.480651,2.8356 -0.560557,9.42574 -0.149413,12.32265 0.405135,2.85457 1.990687,8.27123 3.165456,10.81401 0.582517,1.26086 1.059122,2.64439 1.059122,3.07452 0,0.76284 -1.684853,4.43495 -2.702055,5.88908 -0.677894,0.96907 -1.070985,0.91824 -2.046218,-0.26459 z M 141.2686,138.87488 c -1.47297,-0.22892 -1.85208,-0.45634 -1.85208,-1.11105 0,-0.2814 1.002,-3.87602 2.22666,-7.98803 1.22467,-4.11202 3.29661,-11.1078 4.60432,-15.54619 1.3077,-4.43838 3.0987,-10.51057 3.97999,-13.49375 0.88129,-2.983175 2.01165,-6.852707 2.51191,-8.598957 2.2834,-7.970608 3.67088,-12.442659 4.15458,-13.390791 l 0.52496,-1.029001 h 11.67272 11.67271 l -0.16669,1.389062 c -0.0917,0.763985 -0.58433,2.74387 -1.09477,4.399743 -0.51043,1.655877 -0.92806,3.220266 -0.92806,3.476419 0,0.256154 -0.22488,0.743448 -0.49972,1.082871 -0.48059,0.593492 -0.69495,0.624848 -5.59568,0.818465 -3.6173,0.142912 -5.25885,0.308068 -5.65736,0.56918 -0.43451,0.284699 -0.90339,1.586494 -2.07438,5.759283 -2.09615,7.469546 -2.01094,6.739906 -0.8103,6.938286 0.55627,0.0919 2.69954,0.16843 4.76281,0.17003 3.05486,0.002 3.82862,0.0801 4.16719,0.41869 0.22868,0.22867 0.41578,0.50458 0.41578,0.61312 0,0.72892 -2.67938,9.41275 -2.95899,9.59005 -0.19157,0.12148 -2.696,0.22269 -5.56542,0.22492 l -5.2171,0.004 -1.32495,4.16719 c -1.13669,3.57505 -2.01941,6.6525 -2.57938,8.99254 -0.0875,0.36551 -0.004,0.64247 0.21927,0.72389 0.19852,0.0725 2.62313,0.22283 5.38802,0.33401 4.812,0.19351 5.03045,0.22568 5.10564,0.75175 0.0883,0.61772 -2.24664,7.65789 -3.08452,9.30027 -0.29885,0.5858 -0.7568,1.15766 -1.01766,1.2708 -0.60654,0.26307 -19.39633,0.4092 -20.9795,0.16315 z"
         id="path3701"
         inkscape:connector-curvature="0" />
      <path
         style="fill:#6f6f6f;stroke-width:0.26458335"
         d="m 35.652845,163.48966 c -0.413351,-0.16746 -0.411255,-0.27084 0.03047,-1.50275 0.260895,-0.72761 3.392577,-7.33558 6.959293,-14.68438 3.566718,-7.3488 11.814687,-24.37474 18.328821,-37.83542 6.514137,-13.460675 14.638726,-30.248489 18.054642,-37.30625 3.415919,-7.057761 6.488062,-13.427605 6.826988,-14.155209 1.099275,-2.359927 0.447117,-2.196624 8.160337,-2.043381 l 6.844624,0.135987 -0.12057,31.840851 c -0.0663,17.512472 -0.19728,31.917552 -0.29103,32.011302 -0.2267,0.22671 -1.242555,-0.6622 -7.249216,-6.3433 l -5.076613,-4.80146 -0.04986,-9.657288 c -0.05981,-11.584012 -0.276299,-17.369066 -0.644827,-17.2313 -0.14552,0.0544 -1.053724,1.959401 -2.018231,4.233333 -0.964506,2.273933 -2.836738,6.694269 -4.160514,9.822967 -1.323774,3.128698 -3.850772,9.081828 -5.615554,13.229168 -1.764778,4.14734 -3.268776,7.86259 -3.342216,8.2561 -0.113932,0.61049 -0.02262,0.74637 0.622329,0.92604 0.415719,0.11581 3.762425,0.20607 7.437128,0.20057 5.734105,-0.009 6.740672,-0.0694 7.100291,-0.42901 0.282829,-0.28283 0.467109,-1.12065 0.566984,-2.57779 0.08138,-1.18732 0.254886,-2.22485 0.385567,-2.30561 0.13068,-0.0808 1.750525,1.32461 3.599658,3.12305 1.849131,1.79845 4.939636,4.74173 6.867787,6.54063 1.928157,1.7989 3.505737,3.41465 3.505737,3.59057 0,0.87169 -14.266346,11.88704 -14.760006,11.39651 -0.103928,-0.10327 -0.248491,-1.21723 -0.321251,-2.47547 -0.12215,-2.11233 -0.183002,-2.31328 -0.79375,-2.62109 -0.496245,-0.2501 -3.126894,-0.33434 -10.532239,-0.33727 l -9.870784,-0.004 -0.938138,2.05052 c -2.048971,4.4785 -11.742423,26.44973 -12.266586,27.80352 -0.191119,0.4936 -0.622281,0.98888 -0.97892,1.12447 -0.727066,0.27643 -15.583444,0.29954 -16.260344,0.0253 z m 36.508873,-0.83384 c -3.150087,-0.40089 -9.976657,-2.54473 -12.517069,-3.9309 -1.232427,-0.67247 -1.320898,-0.78868 -1.293413,-1.69887 0.03289,-1.08943 1.995924,-5.42102 2.553755,-5.63508 0.194932,-0.0748 1.538912,0.38902 2.986622,1.03071 1.44771,0.6417 4.060952,1.55895 5.807202,2.03835 3.165713,0.86908 3.192801,0.87162 9.260416,0.86875 6.7814,-0.003 8.287591,-0.21799 12.680418,-1.80812 3.828325,-1.3858 6.84177,-3.01791 10.453581,-5.66175 l 3.29025,-2.40846 h 4.28412 c 5.23587,0 5.43202,0.10683 3.76094,2.04832 -1.18302,1.37446 -4.17418,4.19159 -6.42716,6.05321 -4.56868,3.77509 -12.874725,7.61382 -18.908545,8.73882 -2.371487,0.44216 -13.348681,0.69367 -15.931117,0.36502 z m 49.527722,-19.44668 c 0,-0.10494 0.19088,-0.84741 0.42419,-1.64996 0.62903,-2.1638 0.55965,-2.19964 -4.82729,-2.49357 -2.45324,-0.13386 -5.03542,-0.36014 -5.73816,-0.50285 -1.60798,-0.32653 -3.28497,-1.46818 -4.29274,-2.92239 -0.67084,-0.96803 -0.79284,-1.41765 -0.87491,-3.22449 -0.14683,-3.23291 -0.22632,-2.90766 5.22268,-21.37121 1.31148,-4.44385 3.05863,-10.39697 3.88255,-13.229163 0.82393,-2.83219 2.12153,-7.292562 2.88357,-9.911937 1.96422,-6.751649 2.79258,-8.25735 5.14824,-9.357962 l 1.47916,-0.691091 11.44323,-0.0944 11.44323,-0.09441 v 0.64764 c 0,0.356203 -0.3516,1.826283 -0.78132,3.266847 -0.42972,1.440564 -1.02596,3.468606 -1.32498,4.506757 -0.29902,1.038151 -0.7396,2.050182 -0.97908,2.248958 -0.32856,0.272712 -1.97824,0.398944 -6.72181,0.51435 -8.14745,0.198218 -7.4755,-0.201382 -9.08594,5.403311 -2.0414,7.10458 -6.89795,23.58771 -8.27798,28.09544 -0.81026,2.64666 -1.40207,4.99746 -1.31514,5.224 0.34392,0.89625 1.81741,1.47125 3.77284,1.47228 2.64422,0.001 2.65044,-0.008 4.62812,-6.87818 0.6074,-2.11005 1.32695,-4.60778 1.59899,-5.55052 0.68683,-2.38011 0.64677,-2.82388 -0.29912,-3.31302 -1.1547,-0.59712 -1.12515,-0.84944 0.83998,-7.17261 l 1.07792,-3.46845 2.38899,-0.16957 c 2.9811,-0.21161 10.10833,-0.16697 11.17123,0.07 0.6482,0.14449 0.78082,0.29643 0.72319,0.82859 -0.0388,0.35841 -0.95593,3.62822 -2.03805,7.26624 -1.08213,3.63802 -2.93703,9.94833 -4.12202,14.02291 -3.355,11.53617 -3.4032,11.68991 -3.75554,11.97869 -0.18292,0.14991 -2.99105,1.6583 -6.24031,3.35198 -5.42458,2.82757 -7.45372,3.69811 -7.45372,3.19782 z M 88.616522,142.4682 c 0,-0.33435 1.781913,-2.01981 6.085417,-5.75604 1.236927,-1.07388 2.932673,-2.59075 3.768328,-3.37082 0.835652,-0.78008 1.639323,-1.34419 1.785933,-1.25358 0.16462,0.10174 0.26657,2.18264 0.26657,5.4408 v 5.27605 h -5.953123 c -4.639789,0 -5.953125,-0.0742 -5.953125,-0.33641 z m -48.272296,-0.75334 c -0.807889,-0.96012 -3.400733,-6.03779 -4.504535,-8.8214 -1.81254,-4.57094 -2.816096,-10.33083 -2.813899,-16.15031 0.0039,-10.45981 2.259461,-18.062238 7.849745,-26.45833 6.650747,-9.988813 15.836237,-16.51314 27.36807,-19.439165 3.362914,-0.853289 7.00637,-1.386204 7.892663,-1.154432 0.321029,0.08395 0.574003,0.360208 0.574003,0.626832 0,0.666242 -2.770211,6.131823 -3.394035,6.696378 -0.282033,0.255235 -1.866173,0.800513 -3.520313,1.211728 -8.763995,2.178712 -16.557402,7.49621 -21.890416,14.935992 -3.234325,4.512019 -5.012484,8.271747 -6.423961,13.582797 -0.758658,2.85465 -0.839324,3.55638 -0.95163,8.27841 -0.09558,4.01878 -0.02732,5.70943 0.308745,7.64748 0.60729,3.50212 1.600799,6.85 2.985543,10.06057 0.875736,2.03041 1.152086,2.97373 1.04639,3.57187 -0.212781,1.20412 -2.884865,6.08876 -3.381763,6.18194 -0.235803,0.0442 -0.750876,-0.30244 -1.144607,-0.77036 z m 101.321254,-2.83528 c -1.7995,-0.20187 -2.24881,-0.41192 -2.24931,-1.05152 -2e-4,-0.24607 0.94108,-3.60256 2.09173,-7.45886 1.91357,-6.41319 4.3776,-14.76989 9.28369,-31.485422 4.67801,-15.938429 5.55887,-18.842779 6.05505,-19.964472 l 0.53179,-1.202195 h 11.69063 11.69063 l -0.17481,1.317757 c -0.0961,0.724768 -0.53438,2.48094 -0.97386,3.902604 -0.43948,1.421668 -0.92014,3.142621 -1.06812,3.824341 -0.14799,0.681723 -0.45581,1.394476 -0.68405,1.583894 -0.29357,0.243644 -1.91684,0.389419 -5.54867,0.49829 -4.60676,0.138094 -5.18634,0.206539 -5.64663,0.666826 -0.32508,0.325075 -1.09641,2.58779 -2.10603,6.178088 -0.8762,3.115831 -1.59308,5.809829 -1.59308,5.986649 0,0.51705 0.95513,0.64013 5.02708,0.6478 4.11975,0.008 4.91227,0.11293 5.13018,0.68078 0.0768,0.20023 -0.0803,1.17076 -0.34909,2.15674 -0.26883,0.98598 -0.80785,2.98332 -1.19783,4.43852 -0.45052,1.68113 -0.90608,2.81466 -1.24942,3.10886 -0.47432,0.40642 -1.16654,0.46302 -5.66258,0.46302 h -5.12219 l -1.45386,4.56406 c -0.79962,2.51024 -1.57113,5.10085 -1.71446,5.75693 -0.14333,0.65607 -0.4418,1.62653 -0.66326,2.15657 -0.63586,1.52184 -0.3303,1.62899 4.96111,1.73976 5.25005,0.10989 5.7339,0.17784 5.7339,0.80518 0,0.60985 -2.56092,8.11547 -3.18919,9.34699 -0.27084,0.53088 -0.70587,1.05119 -0.96673,1.15622 -0.62681,0.2524 -18.54359,0.41134 -20.58262,0.18259 z"
         id="path3699"
         inkscape:connector-curvature="0" />
      <path
         style="fill:#4f4f4f;stroke-width:0.26458335"
         d="m 36.030587,163.51997 c -1.151537,-0.22179 -1.286622,0.10224 7.532891,-18.06952 19.255676,-39.67449 42.407211,-87.597593 42.407211,-87.781876 0,-0.116643 0.327422,-0.564768 0.727604,-0.995834 l 0.727604,-0.783756 6.680729,0.07908 6.680734,0.07908 -0.0378,22.939671 c -0.0208,12.616821 -0.1101,27.040815 -0.19844,32.053335 l -0.16062,9.11366 -1.852083,-1.59473 c -1.018646,-0.8771 -3.786849,-3.47326 -6.151562,-5.76924 l -4.299479,-4.17452 -0.03242,-10.620461 c -0.03504,-11.47839 -0.216586,-16.200656 -0.620319,-16.135264 -0.253515,0.04106 -0.910621,1.526461 -5.775412,13.055434 -1.381598,3.274219 -4.072337,9.650151 -5.979421,14.168741 -1.907085,4.51858 -3.467426,8.40514 -3.467426,8.63679 0,0.68742 0.69936,0.80803 5.471427,0.94359 4.653857,0.13219 9.248772,-0.0791 9.854001,-0.45318 0.213561,-0.13198 0.392301,-1.05867 0.482233,-2.50015 0.07859,-1.25973 0.233391,-2.34635 0.344,-2.41471 0.110609,-0.0684 1.851224,1.45316 3.868034,3.38117 2.01681,1.928 5.124,4.86108 6.904865,6.51796 1.780862,1.65687 3.237942,3.14961 3.237942,3.31719 0,0.82704 -14.300631,11.86741 -14.769118,11.40204 -0.09891,-0.0983 -0.239374,-1.20811 -0.312134,-2.46635 -0.12215,-2.11233 -0.183002,-2.31328 -0.79375,-2.62109 -0.496171,-0.25006 -3.122896,-0.33434 -10.511811,-0.33727 l -9.85035,-0.004 -0.504079,0.99219 c -1.024408,2.01636 -12.583725,28.17192 -12.852669,29.08206 -0.299045,1.012 -1.404551,1.14865 -8.984634,1.11056 -3.943727,-0.0198 -7.438304,-0.0876 -7.765726,-0.1507 z m 36.314061,-0.88843 c -3.131023,-0.3096 -11.016361,-2.81221 -13.327395,-4.22978 -0.797735,-0.48933 -0.876589,-0.64198 -0.746308,-1.4448 0.170651,-1.05161 2.095191,-5.26344 2.526996,-5.53032 0.162896,-0.10067 1.527945,0.35331 3.033442,1.00885 5.139894,2.23807 8.996259,3.02864 14.901378,3.05486 9.252339,0.0411 15.445094,-1.96749 23.295499,-7.55569 l 3.48987,-2.48421 h 3.96298 c 4.2967,0 4.79999,0.0824 4.79999,0.78554 0,0.52892 -5.41392,5.87899 -7.8052,7.71316 -4.5485,3.4888 -10.491899,6.30026 -16.668753,7.88495 -3.797474,0.97425 -11.922222,1.34528 -17.462499,0.79744 z m 49.442382,-19.76078 c 0.81417,-2.82906 0.80143,-2.7201 0.36856,-3.15297 -0.32626,-0.32626 -1.54685,-0.49074 -5.55234,-0.74821 -5.89807,-0.3791 -6.82151,-0.65518 -8.571,-2.5624 -1.48638,-1.62041 -1.79332,-2.68961 -1.61395,-5.62206 0.15078,-2.4649 1.00621,-5.66976 6.00789,-22.50863 0.99416,-3.34698 2.89853,-9.835889 4.23194,-14.419795 3.20276,-11.010274 3.29832,-11.293343 4.41558,-13.079511 0.79662,-1.273564 1.21625,-1.65399 2.44245,-2.214259 l 1.48057,-0.676497 11.47145,-0.114078 11.47146,-0.114077 -0.17854,1.153898 c -0.0982,0.634643 -0.45762,2.046867 -0.7987,3.138273 -0.34109,1.091407 -0.86335,2.817813 -1.16058,3.836459 -0.90512,3.101967 -0.35034,2.879003 -7.61808,3.061729 -4.37447,0.109985 -6.52876,0.265078 -7.02859,0.506008 -0.85086,0.410125 -1.07564,0.964893 -2.73545,6.751013 -1.57304,5.483667 -5.52686,18.907487 -7.57397,25.714757 -0.88353,2.93802 -1.53539,5.52694 -1.44857,5.75318 0.0868,0.22623 0.54879,0.65228 1.02662,0.94676 0.70389,0.43382 1.2402,0.52198 2.82575,0.46454 1.77606,-0.0644 2.00594,-0.13665 2.48681,-0.78211 0.29142,-0.39116 1.16643,-2.89148 1.94447,-5.55625 2.59661,-8.89338 2.58755,-8.83016 1.35081,-9.42106 -0.46959,-0.22437 -0.72643,-0.55363 -0.72431,-0.92852 0.004,-0.67414 0.95127,-4.18078 1.9982,-7.39553 l 0.72785,-2.23496 3.72856,-0.17058 c 4.73231,-0.2165 7.68947,-0.21787 9.24788,-0.004 1.07728,0.14766 1.22755,0.24693 1.22755,0.81098 0,0.3535 -0.72326,3.04598 -1.60725,5.98331 -1.6191,5.3799 -3.25132,10.94413 -6.06822,20.68641 -0.84152,2.91042 -1.67656,5.6103 -1.85564,5.99973 -0.33674,0.73228 -2.36108,1.91157 -9.64105,5.61644 -3.56619,1.81488 -4.51312,2.0987 -4.27816,1.28227 z m -33.170508,-0.36055 c 0,-0.53879 11.34378,-10.60533 11.701678,-10.38413 0.11251,0.0695 0.20457,2.50065 0.20457,5.40248 v 5.27605 h -5.953123 c -4.194357,0 -5.953125,-0.087 -5.953125,-0.2944 z M 40.186286,141.4323 c -2.168117,-2.97101 -4.780364,-9.18045 -6.015963,-14.30023 l -0.974743,-4.03892 -0.0031,-6.35 c -0.0035,-7.20062 0.30765,-9.57788 1.904918,-14.55208 3.008584,-9.369317 9.207052,-18.02777 17.063499,-23.835483 6.175118,-4.564826 16.841469,-8.575977 22.805021,-8.575977 1.494769,0 1.744377,0.06725 1.744377,0.469985 0,0.805753 -2.863022,6.333496 -3.567269,6.887454 -0.367961,0.289441 -1.443029,0.661043 -2.389034,0.825783 -4.0958,0.713253 -10.703927,3.748693 -14.715955,6.759768 -6.338147,4.75686 -11.771541,12.569845 -14.082595,20.25016 -1.332279,4.42756 -1.575145,6.57811 -1.426674,12.63303 0.113119,4.6132 0.211976,5.53159 0.846988,7.86861 0.395407,1.45521 0.824731,3.07553 0.954054,3.60071 0.129324,0.52518 0.774088,2.14658 1.43281,3.60311 0.658722,1.45652 1.192957,2.93183 1.187189,3.27846 -0.01553,0.93341 -2.947103,6.43535 -3.481453,6.53395 -0.28017,0.0517 -0.762647,-0.34659 -1.282048,-1.05833 z m 102.537524,-2.56081 c -2.76179,-0.17528 -3.30729,-0.33771 -3.30729,-0.9848 0,-0.21383 0.94727,-3.57032 2.10504,-7.45887 3.085,-10.36142 6.80572,-22.97866 9.26306,-31.41175 4.01512,-13.779022 5.60812,-19.045953 6.10185,-20.17448 l 0.49196,-1.124479 h 11.66566 11.66566 l -0.17689,1.389062 c -0.0973,0.763985 -0.57763,2.678695 -1.06744,4.254911 -0.48981,1.576215 -0.89057,3.029127 -0.89057,3.228694 0,0.615101 -0.57841,1.671283 -1.02802,1.877187 -0.23495,0.107598 -2.62984,0.273971 -5.32198,0.369716 -2.69213,0.09575 -5.09225,0.26094 -5.33358,0.367101 -0.24134,0.106162 -0.56464,0.511887 -0.71844,0.901613 -0.45929,1.163823 -3.20839,10.980405 -3.20839,11.456625 0,0.67328 0.53425,0.76134 4.61877,0.76134 5.00075,0 5.43629,0.0928 5.43228,1.15755 -0.004,1.02043 -2.23918,8.86327 -2.64091,9.26584 -0.18744,0.18782 -2.16972,0.32131 -5.54804,0.3736 l -5.2564,0.0814 -0.38019,0.97697 c -0.2091,0.53733 -0.94558,2.88197 -1.63662,5.21031 -1.09082,3.67528 -1.49231,4.98095 -2.16514,7.04111 -0.23011,0.70457 0.59586,0.85207 5.32729,0.95138 5.09909,0.10703 5.68854,0.1864 5.68854,0.76602 0,0.52534 -2.75237,8.55693 -3.28611,9.58906 -0.21977,0.42499 -0.67163,0.8374 -1.00413,0.91647 -0.96212,0.22876 -16.47378,0.40353 -19.38997,0.21846 z"
         id="path3697"
         inkscape:connector-curvature="0" />
      <path
         style="fill:#2f2f2f;stroke-width:0.26458335"
         d="m 36.397936,163.51976 c -0.975282,-0.10797 -1.014565,-0.14886 -0.864385,-0.89975 0.08653,-0.43266 1.751948,-4.08585 3.700926,-8.11821 1.948979,-4.03236 10.835685,-22.39297 19.748234,-40.80135 24.510594,-50.625298 26.987978,-55.762175 26.987978,-55.959819 0,-0.100353 0.246232,-0.528261 0.547182,-0.950907 l 0.547185,-0.768448 h 6.904601 6.904603 l -0.16812,31.662996 c -0.10726,20.201488 -0.26244,31.757328 -0.4287,31.923588 -0.316106,0.31611 -0.942256,-0.22492 -7.361439,-6.36075 l -4.828645,-4.61549 -0.0013,-10.893194 c -0.0016,-11.847735 -0.170757,-16.127482 -0.63178,-15.973807 -0.335682,0.111893 -1.263269,2.261206 -11.270546,26.114991 -1.190471,2.83766 -2.638428,6.21882 -3.21768,7.51369 -1.512906,3.38196 -1.909162,3.20194 7.048005,3.20194 5.144521,0 7.342428,-0.0891 7.559775,-0.30653 0.168543,-0.16859 0.385411,-1.32212 0.481931,-2.56341 0.09652,-1.24128 0.233566,-2.31495 0.304549,-2.38594 0.07099,-0.071 1.916451,1.5588 4.101036,3.62175 2.184588,2.06294 5.338601,5.0227 7.008923,6.57725 l 3.036941,2.82645 -0.79375,0.84096 c -1.63472,1.73195 -11.726529,9.58391 -13.530686,10.52759 -0.487725,0.25512 -0.587965,0.21456 -0.72399,-0.29288 -0.08684,-0.32394 -0.159512,-1.38992 -0.161499,-2.36883 -0.0057,-2.82625 0.501793,-2.69988 -11.288101,-2.81066 l -9.852934,-0.0926 -0.825942,1.81237 c -0.454266,0.99681 -1.961743,4.37222 -3.349948,7.50092 -1.388202,3.1287 -3.938288,8.87512 -5.666856,12.76983 -1.728565,3.89471 -3.214939,7.36852 -3.30305,7.71959 -0.08811,0.35106 -0.399899,0.85542 -0.69286,1.12079 -0.486161,0.44038 -1.159637,0.48505 -7.715267,0.51173 -3.950435,0.0161 -7.642381,-0.0217 -8.204323,-0.0839 z m 36.60817,-0.85136 c -5.01714,-0.45937 -14.809107,-3.93248 -14.820582,-5.25671 -0.0053,-0.60647 1.759395,-4.79291 2.344746,-5.56265 l 0.466058,-0.61287 2.450192,1.07822 c 1.347605,0.59303 3.900977,1.5203 5.674159,2.06062 l 3.223969,0.98238 6.482291,0.007 c 5.353606,0.006 6.838794,-0.0762 8.529762,-0.47292 5.139377,-1.20583 9.971484,-3.47996 14.665199,-6.90187 l 3.4835,-2.53961 h 3.56103 c 4.06782,0 5.21467,0.15943 5.21467,0.72491 0,0.8838 -6.50737,6.96123 -9.92187,9.26634 -4.501316,3.03881 -12.551544,6.2841 -17.197916,6.93299 -2.734582,0.3819 -11.259978,0.5588 -14.155208,0.29371 z m 48.780924,-19.79764 c 0.81826,-2.84328 0.80439,-2.71714 0.34876,-3.17277 -0.35152,-0.35153 -1.45003,-0.50219 -5.56418,-0.76319 -5.6897,-0.36094 -6.56753,-0.59217 -8.20903,-2.16238 -1.40494,-1.34393 -2.00609,-2.74769 -2.01316,-4.70098 -0.0107,-2.95218 -0.38237,-1.565 9.03398,-33.716828 1.29987,-4.438386 2.82613,-9.660306 3.39168,-11.604269 1.62804,-5.596043 2.82638,-7.512561 5.24008,-8.380487 1.0706,-0.384971 2.82095,-0.467325 12.4248,-0.584586 l 11.17864,-0.136488 v 1.049827 c 0,0.577406 -0.29008,1.991765 -0.64462,3.14302 -0.35455,1.151255 -0.8874,2.929634 -1.18412,3.951952 -0.89534,3.084804 -0.31463,2.855574 -7.7329,3.052474 -3.54511,0.0941 -6.65841,0.262382 -6.91846,0.373967 -0.75098,0.322247 -1.12136,1.286516 -3.06698,7.984782 -2.43641,8.387936 -5.54806,18.957086 -7.32226,24.871076 -0.79259,2.64195 -1.44107,4.98285 -1.44107,5.202 0,1.27644 3.22697,2.34125 5.333,1.75975 1.17559,-0.3246 1.55307,-1.11925 3.13801,-6.60593 0.60952,-2.11006 1.3418,-4.64278 1.62728,-5.62827 0.66765,-2.30477 0.57537,-3.12514 -0.40412,-3.59251 -0.68827,-0.32842 -0.74237,-0.45179 -0.59695,-1.36124 0.20131,-1.2589 1.8531,-6.96104 2.38352,-8.22815 l 0.39801,-0.95079 4.8121,-0.15828 c 2.64665,-0.0871 5.81874,-0.0872 7.04908,-5.3e-4 l 2.237,0.15787 -0.11275,0.9512 c -0.062,0.52316 -0.95875,3.74917 -1.99274,7.16891 -1.03399,3.41974 -2.84778,9.55146 -4.03063,13.62605 -3.30784,11.39449 -3.41823,11.73618 -3.95226,12.23367 -0.66843,0.62282 -12.55633,6.68415 -13.10918,6.68415 -0.2875,0 -0.38885,-0.15614 -0.30053,-0.46302 z m -33.170508,-0.27362 c 0,-0.52512 10.979549,-10.36212 11.575518,-10.37096 0.25372,-0.004 0.33073,1.22721 0.33073,5.28677 v 5.29166 h -5.953123 c -3.274219,0 -5.953125,-0.0934 -5.953125,-0.20747 z M 40.184846,141.4323 c -1.021186,-1.39694 -3.639774,-6.77809 -4.611038,-9.4756 -0.39297,-1.09141 -1.07028,-3.53219 -1.505132,-5.42396 -0.673028,-2.92792 -0.811411,-4.16772 -0.930265,-8.33438 -0.156237,-5.47723 0.227682,-9.41038 1.35068,-13.83737 C 37.131386,93.944751 44.651041,83.358014 53.691524,77.326355 59.720505,73.30392 68.138813,70.253059 74.3019,69.856994 l 2.48642,-0.159788 -0.190201,0.768806 c -0.251614,1.017044 -2.42706,5.456692 -3.081436,6.288597 -0.403275,0.512681 -1.077716,0.783675 -3.092846,1.242724 -3.174199,0.723091 -5.101376,1.43868 -8.591897,3.190307 -3.78321,1.898504 -6.285692,3.65682 -9.162472,6.437815 -9.653589,9.332162 -13.880445,21.778855 -11.909939,35.070825 0.400112,2.69894 1.784544,7.29821 3.046827,10.12197 0.634655,1.41974 1.150809,2.84849 1.147008,3.175 -0.01041,0.89432 -2.962607,6.39315 -3.486501,6.49404 -0.280378,0.054 -0.759622,-0.34038 -1.282017,-1.05499 z m 99.826984,-2.86926 c -0.32742,-0.13161 -0.59531,-0.42159 -0.59531,-0.6444 0,-0.22281 0.94027,-3.53063 2.08949,-7.35071 1.14922,-3.82009 3.24235,-10.87467 4.6514,-15.67686 1.40904,-4.80219 3.32054,-11.29109 4.24777,-14.41979 0.92723,-3.1287 2.03731,-6.9387 2.46686,-8.466669 1.61135,-5.731888 3.52654,-11.949129 4.03481,-13.098174 l 0.5261,-1.189326 h 11.53321 11.53322 l -0.14018,1.653646 c -0.0771,0.909505 -0.4942,2.784739 -0.92688,4.167187 -0.43268,1.382448 -0.92506,3.014896 -1.09418,3.62766 -0.2665,0.965605 -0.43875,1.150573 -1.29216,1.387586 -0.54157,0.150408 -2.8042,0.274135 -5.02806,0.274945 -5.99943,0.0021 -5.43461,-0.493731 -7.42119,6.515979 -0.90228,3.183742 -1.63866,5.984246 -1.6364,6.223336 0.006,0.66275 0.53453,0.75335 4.58981,0.78721 4.75034,0.0397 5.31103,0.15093 5.41802,1.07505 0.045,0.38882 -0.27441,1.93607 -0.70983,3.43832 -0.43543,1.50226 -0.97984,3.40992 -1.20981,4.23926 -0.22997,0.82934 -0.56539,1.60325 -0.74537,1.71979 -0.17999,0.11655 -2.70423,0.27144 -5.60941,0.3442 l -5.28216,0.13229 -1.15614,3.57188 c -0.63588,1.96453 -1.43261,4.64343 -1.7705,5.95312 -0.33789,1.30969 -0.76522,2.7119 -0.94962,3.11603 -0.57773,1.26612 -0.21044,1.36841 5.43675,1.51418 2.8188,0.0728 5.22144,0.22905 5.3392,0.34731 0.11776,0.11826 -0.4912,2.32092 -1.35324,4.89479 -1.13906,3.40101 -1.76462,4.8786 -2.28928,5.40738 l -0.72194,0.7276 -10.66983,-0.0168 c -5.86841,-0.009 -10.93773,-0.12445 -11.26515,-0.25606 z"
         id="path3695"
         inkscape:connector-curvature="0" />
      <path
         style="fill:#000000;stroke-width:0.26458335"
         d="m 36.692045,163.51222 c -0.691224,-0.0545 -1.25677,-0.19667 -1.25677,-0.31592 0,-0.63565 1.278567,-3.41939 6.819819,-14.84835 9.841892,-20.29912 29.365212,-60.655132 36.665585,-75.790215 3.720158,-7.712604 7.049687,-14.558698 7.398958,-15.213542 l 0.635035,-1.190625 6.954136,-0.07061 6.954132,-0.07061 -0.19582,31.055443 c -0.1077,17.080499 -0.27421,31.438779 -0.37004,31.907299 l -0.17422,0.85185 -1.585982,-1.38515 c -0.872289,-0.76183 -3.580278,-3.28933 -6.017752,-5.61667 l -4.43177,-4.23153 -0.0019,-11.667929 C 88.083556,85.17534 87.95024,81.685867 87.503288,81.685867 c -0.296104,0 -1.13892,1.83547 -4.312968,9.392709 -7.48883,17.830514 -9.43252,22.435564 -10.315601,24.440084 -1.424601,3.23373 -1.789247,3.07659 7.139292,3.07659 5.547076,0 7.333104,-0.0798 7.592456,-0.33925 0.196713,-0.19678 0.379759,-1.19676 0.435888,-2.38125 0.05322,-1.1231 0.194318,-2.14526 0.313552,-2.27147 0.173477,-0.18362 7.375311,6.33051 13.059803,11.81272 l 1.03681,0.99992 -0.63417,0.68494 c -1.64454,1.77621 -13.255107,10.67668 -13.927615,10.67668 -0.340754,0 -0.596055,-1.27798 -0.601228,-3.00963 -0.0021,-0.7458 -0.101526,-1.50963 -0.22066,-1.69742 -0.415631,-0.65511 -3.658084,-0.86283 -12.33326,-0.79006 l -8.721513,0.0731 -2.446481,5.42396 c -1.345565,2.98318 -3.036596,6.79318 -3.757847,8.46667 -2.043597,4.74167 -6.87524,15.66949 -7.251584,16.40104 -0.239167,0.4649 -0.647174,0.71308 -1.38862,0.84465 -1.061043,0.18828 -12.155875,0.20539 -14.477545,0.0223 z m 36.685007,-0.88049 c -2.982515,-0.22984 -3.597341,-0.36979 -8.308445,-1.89119 -3.481994,-1.12446 -6.014088,-2.26341 -6.599095,-2.96831 -0.405849,-0.48901 -0.03265,-1.67702 1.479823,-4.7107 l 0.888246,-1.78162 1.255617,0.50241 c 0.690589,0.27632 1.952209,0.81396 2.803601,1.19475 0.85139,0.38079 2.875452,1.06531 4.497917,1.52116 2.727743,0.76639 3.334279,0.83763 8.052797,0.94584 6.507705,0.14923 9.316918,-0.17584 13.379484,-1.54821 4.325276,-1.46113 7.280034,-3.00961 11.338743,-5.94223 l 3.46438,-2.50318 h 3.09794 c 4.01741,0 5.55304,0.20767 5.55304,0.75097 0,0.56486 -5.19971,5.63481 -7.8052,7.6104 -7.103978,5.38655 -14.775074,8.29659 -23.283336,8.83257 -4.657338,0.29339 -5.864251,0.29184 -9.815512,-0.0126 z M 122.0511,142.50258 c 0.53893,-2.89256 0.54112,-2.84461 -0.14188,-3.10428 -0.35306,-0.13424 -2.77937,-0.37218 -5.39179,-0.52877 -2.61243,-0.15659 -5.21481,-0.41751 -5.78307,-0.57982 -1.39218,-0.39765 -3.64335,-2.67413 -4.06899,-4.11475 -0.17697,-0.59897 -0.32177,-1.63029 -0.32177,-2.29183 0,-2.58233 0.11754,-3.02058 8.06966,-30.08893 1.38941,-4.729432 3.18166,-10.84286 3.98278,-13.585404 1.95668,-6.698462 2.84066,-8.387311 4.96237,-9.480601 1.41367,-0.728446 5.4045,-0.970532 16.38884,-0.994156 l 7.87135,-0.01693 v 0.956296 c 0,0.525963 -0.35437,2.103541 -0.7875,3.50573 -0.43313,1.402188 -0.97071,3.204276 -1.19462,4.004641 -0.22391,0.800364 -0.50988,1.617371 -0.63548,1.815573 -0.37771,0.595993 -2.28664,0.806538 -7.43656,0.820214 -5.26693,0.014 -6.676,0.236942 -7.25308,1.147651 -0.20289,0.320205 -1.38875,4.094531 -2.63522,8.387396 -3.86374,13.30671 -5.46001,18.73333 -7.04224,23.94052 -0.83942,2.76254 -1.47923,5.14379 -1.42182,5.29166 0.26983,0.69496 1.99333,1.51348 3.45438,1.64056 2.91737,0.25373 3.30109,-0.20467 4.83882,-5.78057 0.45496,-1.6497 1.18386,-4.12056 1.61978,-5.49081 0.97326,-3.05924 0.96477,-4.55067 -0.0273,-4.79266 -0.57989,-0.14145 -0.65352,-0.28797 -0.59707,-1.18815 0.0571,-0.91007 1.68502,-6.72913 2.42263,-8.65961 l 0.27801,-0.7276 h 7.01801 c 6.92535,0 7.018,0.007 7.018,0.54881 0,0.30184 -0.70354,2.89145 -1.56342,5.75469 -0.85989,2.86323 -2.77485,9.37306 -4.25546,14.46629 -3.66564,12.60957 -3.7124,12.75597 -4.22262,13.2177 -0.51624,0.46719 -11.73077,6.32018 -12.68076,6.61822 -0.59588,0.18695 -0.6207,0.14999 -0.46399,-0.69108 z m -33.434578,0.0946 c 0,-0.57681 11.257314,-10.48111 11.642408,-10.24311 0.16076,0.0994 0.26384,2.17269 0.26384,5.30682 v 5.14376 h -5.953123 c -3.274219,0 -5.953125,-0.0934 -5.953125,-0.20747 z m -48.371575,-1.18159 c -2.350103,-3.42312 -4.895523,-9.57627 -6.046294,-14.61597 -0.750598,-3.28718 -0.933038,-4.70001 -1.059429,-8.20434 -0.305358,-8.46636 0.986405,-15.10238 4.288848,-22.032582 5.303107,-11.128612 14.493799,-19.828382 25.126993,-23.784833 6.265614,-2.331341 14.155208,-3.792173 14.155208,-2.620969 0,0.508656 -3.068651,6.613448 -3.507343,6.977531 -0.19141,0.158856 -1.451589,0.529688 -2.800398,0.824069 -2.971842,0.648615 -7.016763,2.234319 -10.228717,4.009898 -9.75834,5.394442 -17.085681,15.670589 -19.35388,27.142626 -0.550195,2.78276 -0.635475,11.18165 -0.139285,13.71759 0.62076,3.17259 1.694269,6.68044 2.97307,9.71495 0.718605,1.7052 1.306554,3.26663 1.306554,3.46984 0,0.46314 -2.550304,5.43784 -3.108559,6.06365 -0.589057,0.66034 -0.742735,0.59707 -1.606768,-0.66146 z m 99.899173,-2.88721 c -0.40018,-0.14615 -0.7276,-0.37874 -0.7276,-0.51686 0,-0.13812 1.00167,-3.61078 2.22592,-7.71702 1.22426,-4.10624 3.3787,-11.39495 4.78763,-16.19714 9.17402,-31.268491 9.9206,-33.764978 10.50377,-35.123438 l 0.53951,-1.256771 h 11.47679 11.4768 v 1.169048 c 0,0.642977 -0.40783,2.46978 -0.90627,4.059558 -0.49845,1.589778 -0.98649,3.31811 -1.08454,3.840737 -0.33261,1.772975 -0.59828,1.857957 -6.3472,2.030288 -4.12047,0.123518 -5.22674,0.235056 -5.55139,0.559702 -0.50545,0.50545 -3.61107,11.249936 -3.51279,12.153166 l 0.072,0.66146 4.67628,0.17042 c 2.57196,0.0937 4.80438,0.24959 4.96094,0.34634 0.48694,0.30095 0.29017,1.45616 -0.99288,5.82915 l -1.24087,4.22924 -1.0559,0.18728 c -0.58075,0.10301 -3.0486,0.19414 -5.48413,0.20253 l -4.42822,0.0152 -0.34897,0.8599 c -0.19194,0.47294 -0.97104,2.94348 -1.73134,5.4901 -0.7603,2.54661 -1.56721,5.20971 -1.79314,5.918 -0.3054,0.95745 -0.33408,1.36467 -0.11178,1.5875 0.19151,0.19197 2.09721,0.34726 5.30126,0.432 3.25546,0.0861 5.10837,0.23871 5.30608,0.43703 0.2288,0.2295 -0.0608,1.35697 -1.17282,4.56656 -1.76461,5.09299 -2.10297,5.78959 -2.97274,6.12028 -0.9032,0.34339 -20.91154,0.2937 -21.86438,-0.0543 z"
         id="path3693"
         inkscape:connector-curvature="0" />
    </g>
  </g>
</svg>
